<svg xmlns="http://www.w3.org/2000/svg" xmlns:xlink="http://www.w3.org/1999/xlink" version="1.1" x="0px" y="0px" viewBox="0 0 100 125" enable-background="new 0 0 100 100" xml:space="preserve"><path fill="#324A61" d="M49.638,98.368L27.277,35.261c-1.816-5.123-1.816-10.72,0-15.85C31.654,7.06,45.212,0.597,57.568,4.976  C69.92,9.35,76.383,22.909,72.004,35.261L49.638,98.368z M50.242,10.496h-1.201V44.18h1.201V10.496z M57.953,40.112  c0.637,0,1.158-0.514,1.158-1.156v-6.709h1.055v6.709c0,0.643,0.521,1.156,1.158,1.156c0.641,0,1.156-0.514,1.156-1.156v-6.709  h1.365l-1.365-6.23v-1.341c0-0.067,0.041-0.122,0.102-0.148c0.082-0.033,0.178,0.006,0.211,0.087  c0.643,1.571,0.977,3.252,0.98,4.952c0,0.544,0.443,0.984,0.988,0.984c0.547,0,0.984-0.443,0.984-0.988  c-0.006-3.106-0.967-6.132-2.758-8.67c-0.182-0.264-0.482-0.42-0.805-0.42h-5.088c-0.324,0-0.623,0.156-0.807,0.42  c-1.791,2.538-2.752,5.563-2.756,8.67c0,0.545,0.438,0.988,0.982,0.988c0.547,0,0.988-0.44,0.988-0.984  c0.004-1.7,0.34-3.381,0.982-4.952c0.023-0.061,0.08-0.102,0.148-0.102c0.088,0,0.162,0.075,0.162,0.163v1.29l-1.365,6.281h1.365  v6.709C56.797,39.599,57.312,40.112,57.953,40.112z M41.328,40.112c0.641,0,1.16-0.514,1.16-1.156v-6.709h1.363l-1.363-6.23v-1.341  c0-0.067,0.035-0.122,0.096-0.148c0.084-0.033,0.18,0.006,0.215,0.087c0.641,1.571,0.975,3.252,0.977,4.952  c0,0.544,0.445,0.984,0.988,0.984c0.549,0,0.988-0.443,0.988-0.988c-0.006-3.106-0.973-6.132-2.758-8.67  c-0.186-0.264-0.488-0.42-0.809-0.42h-5.084c-0.322,0-0.623,0.156-0.811,0.42c-1.787,2.538-2.75,5.563-2.754,8.67  c-0.004,0.545,0.439,0.988,0.982,0.988c0.547,0,0.988-0.44,0.988-0.984c0.004-1.7,0.336-3.381,0.98-4.952  c0.025-0.061,0.084-0.102,0.148-0.102c0.09,0,0.162,0.075,0.162,0.163v1.29l-1.363,6.281h1.363v6.709  c0,0.643,0.518,1.156,1.156,1.156s1.158-0.514,1.158-1.156v-6.709h1.061v6.709C40.173,39.599,40.689,40.112,41.328,40.112z   M62.027,16.899c0-1.292-1.047-2.341-2.334-2.341c-1.293,0-2.34,1.049-2.34,2.341c0,1.286,1.047,2.335,2.34,2.335  C60.98,19.234,62.027,18.186,62.027,16.899L62.027,16.899z M42.031,16.899c0-1.292-1.043-2.341-2.336-2.341  c-1.291,0-2.336,1.049-2.336,2.341c0,1.286,1.045,2.335,2.336,2.335C40.988,19.234,42.031,18.186,42.031,16.899L42.031,16.899z"/></svg>
